# xmcd
#
# Track frame offsets:
#	150
#	812
#	22810
#	40581
#	67704
#	85258
#	110828
#	133927
#	160829
#	180048
#	202511
#	222336
#	245105
#	272593
#	297393
#
# Disc length: 4181 seconds
#
# Revision: 1
# Processed by: cddbd v1.4PL0 Copyright (c) Steve Scherf et al.
# Submitted via: EasyCDDAExtractor 5.0.6
#
DISCID=bb10530f
DTITLE=Jimmy Lewis - Communication
DYEAR=2002
DGENRE=Blues
TTITLE0=Introduction
TTITLE1=Sweet Daddy Baby (Featuring Natisse "Bambi" Jones)
TTITLE2=String Bean (Featuring Peggy Scott-Adams)
TTITLE3=Love Ain't Love Till U Give It Away (Featuring Peggy Scott-Adams and Gre
TTITLE3=g Rose) 
TTITLE4=Older Man's Queen Or Young Man's Slave
TTITLE5=You Can't Touch The Music From the Sixties Thru The Eighties (Featurin
TTITLE5=g Aaron Lewis)
TTITLE6=I Got Those Rich white Folks Blues (Intro Brandon Rogers)
TTITLE7=Girl Dawgs and boy Dawgs (Featuring Peggy Scott-Adams)
TTITLE8=Everybody's Got A Phone Communication
TTITLE9=The Good, The Bad And The Ugly
TTITLE10=Light Skin Girls, Dark Skin Girls
TTITLE11=Caught Up
TTITLE12=Wife, Woman, Lover, Friend
TTITLE13=You Said It, No I Didn't (Featuring Natisse "Bambi" Jones)
TTITLE14=This Little Light Of Mine
EXTD=
EXTT0=
EXTT1=
EXTT2=
EXTT3=
EXTT4=
EXTT5=
EXTT6=
EXTT7=
EXTT8=
EXTT9=
EXTT10=
EXTT11=
EXTT12=
EXTT13=
EXTT14=
PLAYORDER=
